<svg>
	
	<symbol id="phone" width="27" height="27" viewBox="0 0 27 27" fill="none" xmlns="http://www.w3.org/2000/svg">
		<path fill-rule="evenodd" clip-rule="evenodd" d="M22.4539 4.5091C20.0858 2.13821 16.9364 0.831957 13.5812 0.830566C6.66757 0.830566 1.04085 6.45713 1.03807 13.3726C1.03715 15.5833 1.61465 17.7413 2.71234 19.6434L0.932861 26.1431L7.58218 24.3988C9.41434 25.3982 11.477 25.9249 13.5761 25.9255H13.5814C20.4943 25.9255 26.1216 20.2985 26.1242 13.3827C26.1256 10.0311 24.8222 6.87983 22.4539 4.5091ZM13.5812 23.8072H13.5769C11.7063 23.8065 9.87165 23.3037 8.27077 22.3541L7.89025 22.128L3.94444 23.1632L4.99763 19.3161L4.74967 18.9216C3.70605 17.2617 3.15497 15.3432 3.15589 13.3734C3.15806 7.62542 7.83494 2.949 13.5854 2.949C16.37 2.94993 18.9876 4.03572 20.9559 6.00631C22.9242 7.9769 24.0075 10.5962 24.0066 13.3819C24.0041 19.1304 19.3275 23.8072 13.5812 23.8072ZM19.2997 15.9992C18.9864 15.8422 17.4455 15.0843 17.1581 14.9795C16.8711 14.875 16.6619 14.8229 16.4531 15.1365C16.2441 15.4501 15.6436 16.1562 15.4607 16.3652C15.2777 16.5744 15.0951 16.6007 14.7817 16.4437C14.4682 16.2869 13.4584 15.9558 12.2612 14.8881C11.3296 14.0571 10.7007 13.0307 10.5177 12.7171C10.3351 12.4032 10.5162 12.2499 10.6552 12.0775C10.9945 11.6562 11.3343 11.2145 11.4387 11.0055C11.5433 10.7963 11.4909 10.6132 11.4124 10.4564C11.3343 10.2996 10.7075 8.75694 10.4464 8.12923C10.1918 7.51835 9.9336 7.60086 9.7411 7.59128C9.55849 7.58216 9.34945 7.58031 9.14042 7.58031C8.93154 7.58031 8.59196 7.65864 8.3046 7.97257C8.0174 8.28635 7.20784 9.04446 7.20784 10.5871C7.20784 12.1297 8.33087 13.62 8.48753 13.8292C8.64418 14.0384 10.6976 17.204 13.8414 18.5614C14.5892 18.8846 15.1728 19.0772 15.6281 19.2217C16.379 19.4602 17.062 19.4265 17.6021 19.3459C18.2044 19.2558 19.4562 18.5876 19.7176 17.8556C19.9787 17.1235 19.9787 16.4961 19.9002 16.3652C19.8221 16.2345 19.613 16.1562 19.2997 15.9992Z" fill="#F5AC54"/>
	</symbol>

	<sybbol id="whatsApp" width="27" height="27" viewBox="0 0 27 27" fill="none" xmlns="http://www.w3.org/2000/svg">
		<g clip-path="url(#clip0-465852)">
		<path d="M26.0493 15.6296C26.8548 8.84925 25.6623 4.56862 23.5113 2.6325L23.5125 2.63137C20.0407 -0.675003 8.31597 -1.16438 4.16247 2.77987C2.29722 4.70925 1.64022 7.54088 1.56822 11.0464C1.49622 14.553 1.41072 21.1219 7.53184 22.9039H7.53747L7.53184 25.6253C7.53184 25.6253 7.49022 26.7278 8.19447 26.9494C8.99997 27.2104 9.36447 26.6985 11.8698 23.706C16.0593 24.0694 19.2768 23.2369 19.6425 23.1154C20.4885 22.8319 25.2753 22.1985 26.0493 15.6296ZM12.2827 21.7913C12.2827 21.7913 9.63109 25.0976 8.80647 25.956C8.53647 26.235 8.24059 26.2091 8.24509 25.6556C8.24509 25.2923 8.26534 21.1376 8.26534 21.1376C3.07572 19.6504 3.38172 14.0569 3.43797 11.1308C3.49422 8.2035 4.02972 5.80613 5.60922 4.19175C9.25309 0.775123 19.5322 1.539 22.1512 4.0005C25.353 6.83888 24.2133 14.8579 24.2201 15.1313C23.562 20.6145 19.683 20.9621 18.9697 21.1995C18.6648 21.3008 15.8355 22.0286 12.2827 21.7913Z" fill="#F5AC54"/>
		<path d="M13.7496 4.83414C13.3165 4.83414 13.3165 5.50914 13.7496 5.51476C17.11 5.54064 19.8775 7.88289 19.9079 12.1793C19.9079 12.6326 20.5716 12.627 20.566 12.1736H20.5649C20.5289 7.54426 17.5071 4.86001 13.7496 4.83414Z" fill="#F5AC54"/>
		<path d="M18.1698 11.4671C18.1597 11.9149 18.8223 11.9363 18.8279 11.4829C18.8831 8.93026 17.3092 6.82764 14.3516 6.60601C13.9184 6.57451 13.8734 7.25514 14.3054 7.28664C16.8704 7.48126 18.2216 9.23176 18.1698 11.4671Z" fill="#F5AC54"/>
		<path d="M17.4612 14.3707C16.9055 14.049 16.3396 14.2492 16.1056 14.5654L15.6162 15.1987C15.3676 15.5205 14.903 15.4777 14.903 15.4777C11.5122 14.5811 10.6055 11.0329 10.6055 11.0329C10.6055 11.0329 10.5639 10.5525 10.8744 10.2949L11.4864 9.78862C11.7924 9.54562 11.9859 8.96062 11.6742 8.38574C10.8417 6.88162 10.2826 6.36299 9.99799 5.96474C9.69874 5.59012 9.24874 5.50574 8.78074 5.75887H8.77062C7.79749 6.32812 6.73212 7.39349 7.07299 8.49037C7.65462 9.64687 8.72337 13.3335 12.1299 16.119C13.7307 17.4364 16.2642 18.7864 17.3397 19.098L17.3499 19.1137C18.4096 19.467 19.4401 18.36 19.9902 17.3576V17.3497C20.2344 16.8649 20.1534 16.4059 19.7968 16.1055C19.1645 15.489 18.2105 14.8084 17.4612 14.3707Z" fill="#F5AC54"/>
		<path d="M14.815 9.11701C15.8961 9.18001 16.4204 9.74476 16.4767 10.9046C16.4969 11.358 17.155 11.3265 17.1348 10.8731C17.0628 9.35889 16.273 8.51514 14.851 8.43639C14.4179 8.41051 14.3774 9.09114 14.815 9.11701Z" fill="#F5AC54"/>
		</g>
		<defs>
			<clipPath id="clip0-465852">
				<rect width="27" height="27" fill="white"/>
			</clipPath>
		</defs>
	</symbol>

	<symbol id="telegram" width="27" height="27" viewBox="0 0 27 27" fill="none" xmlns="http://www.w3.org/2000/svg">
		<path d="M13.5 27C20.9441 27 27 20.9441 27 13.5C27 6.05587 20.9441 0 13.5 0C6.05587 0 0 6.05587 0 13.5C0 20.9441 6.05587 27 13.5 27ZM13.5 1.6875C20.0138 1.6875 25.3125 6.98625 25.3125 13.5C25.3125 20.0138 20.0138 25.3125 13.5 25.3125C6.98625 25.3125 1.6875 20.0138 1.6875 13.5C1.6875 6.98625 6.98625 1.6875 13.5 1.6875Z" fill="#F5AC54"/>
		<path d="M8.88296 15.9244L10.647 15.1583L10.152 15.6544C9.99334 15.813 9.90446 16.0279 9.90446 16.2506V19.5525C9.90446 20.3085 10.818 20.6753 11.3445 20.1488L13.1152 18.378L16.974 20.3074C17.4735 20.5571 18.0776 20.2613 18.1811 19.7033L20.3827 7.59713C20.4986 6.94576 19.8573 6.41926 19.2442 6.66001L4.93871 12.2591C4.29746 12.5089 4.21196 13.3864 4.79246 13.7565L8.09321 15.8625C8.32946 16.0133 8.62759 16.0369 8.88296 15.9244ZM18.4522 8.78401L16.7231 18.2959L13.3256 16.5983C12.9971 16.434 12.6056 16.5026 12.3525 16.7569L11.592 17.5174V16.6028L14.9748 13.2199C15.6307 12.564 14.8927 11.4818 14.0422 11.8496L8.62309 14.2009L7.09984 13.2289L18.4522 8.78401Z" fill="#F5AC54"/>
	</symbol>


</svg>